<?xml version="1.0" ?>
<!-- Uploaded to: SVG Repo, www.svgrepo.com, Generator: SVG Repo Mixer Tools -->
<svg width="800px" height="800px" viewBox="0 0 24 24" xmlns="http://www.w3.org/2000/svg">
<defs>
<style>.cls-1,.cls-5{fill:#ffeabb;}.cls-2{fill:#f94060;}.cls-3{fill:#f7bf75;}.cls-4,.cls-6{fill:#f1734d;}.cls-5,.cls-6{fill-rule:evenodd;}</style>
</defs>
<g id="Certificate">
<rect class="cls-1" height="13.7" rx="0.57" width="20" x="2" y="3.29"/>
<path class="cls-2" d="M4.94,12.86H9.53a1.13,1.13,0,0,1,0,2.26H4.94a1.13,1.13,0,0,1,0-2.26"/>
<path class="cls-3" d="M20.05,17h1.38a.57.57,0,0,0,.57-.57V3.86a.58.58,0,0,0-.57-.57H20.05Z"/>
<path class="cls-2" d="M13.57,15.49l-2,3.39a.34.34,0,0,0,0,.35.37.37,0,0,0,.31.18h.87a.78.78,0,0,1,.64.37l.44.75a.35.35,0,0,0,.31.18.35.35,0,0,0,.3-.18l2.31-4Z"/>
<path class="cls-2" d="M15.63,17.28s1.27,2.22,1.87,3.25a.37.37,0,0,0,.31.18.35.35,0,0,0,.3-.18c.15-.24.32-.53.45-.75a.77.77,0,0,1,.63-.37h.88a.35.35,0,0,0,.3-.18.36.36,0,0,0,0-.35l-2-3.39Z"/>
<path class="cls-3" d="M18.51,14.79A2.52,2.52,0,1,1,16,12.28a2.52,2.52,0,0,1,2.52,2.51"/>
<path class="cls-4" d="M17.89,14.79a1.9,1.9,0,1,1-1.9-1.9,1.9,1.9,0,0,1,1.9,1.9"/>
<path class="cls-5" d="M16.47,14.29h-.95a.5.5,0,0,0-.5.5.5.5,0,0,0,.5.5h.95a.5.5,0,0,0,.5-.5A.51.51,0,0,0,16.47,14.29Z"/>
<path class="cls-6" d="M10.62,6.13h2.76a.5.5,0,0,0,.5-.5.51.51,0,0,0-.5-.5H10.62a.51.51,0,0,0-.5.5A.5.5,0,0,0,10.62,6.13Z"/>
<path class="cls-6" d="M8.18,8.06h7.64a.5.5,0,0,0,.5-.5.5.5,0,0,0-.5-.5H8.18a.5.5,0,0,0-.5.5A.5.5,0,0,0,8.18,8.06Z"/>
<path class="cls-6" d="M8.18,10h7.64a.5.5,0,0,0,.5-.5.5.5,0,0,0-.5-.5H8.18a.5.5,0,0,0-.5.5A.5.5,0,0,0,8.18,10Z"/>
</g>
</svg>